<svg xmlns="http://www.w3.org/2000/svg" width="1800" height="1100" viewBox="0 0 1800 1100">
  <defs>
    <linearGradient id="g1" x1="0" x2="1" y1="0" y2="1">
      <stop offset="0%" stop-color="#0ea5e9"/>
      <stop offset="100%" stop-color="#111827"/>
    </linearGradient>
    <linearGradient id="g2" x1="0" x2="1" y1="0" y2="1">
      <stop offset="0%" stop-color="#111827" stop-opacity="0.0"/>
      <stop offset="100%" stop-color="#111827" stop-opacity="0.5"/>
    </linearGradient>
    <radialGradient id="glow" cx="50%" cy="40%" r="60%">
      <stop offset="0%" stop-color="#22d3ee" stop-opacity="0.6"/>
      <stop offset="100%" stop-color="#22d3ee" stop-opacity="0"/>
    </radialGradient>
  </defs>
  <rect width="100%" height="100%" fill="url(#g1)"/>
  <!-- stadium silhouettes -->
  <g opacity="0.25" fill="#0b1220">
    <rect x="0" y="780" width="1800" height="200"/>
    <circle cx="200" cy="760" r="40"/>
    <circle cx="350" cy="760" r="40"/>
    <circle cx="500" cy="760" r="40"/>
    <circle cx="650" cy="760" r="40"/>
    <circle cx="800" cy="760" r="40"/>
    <circle cx="950" cy="760" r="40"/>
    <circle cx="1100" cy="760" r="40"/>
    <circle cx="1250" cy="760" r="40"/>
    <circle cx="1400" cy="760" r="40"/>
    <circle cx="1550" cy="760" r="40"/>
  </g>

  <!-- bench -->
  <g transform="translate(260,680)">
    <rect x="0" y="0" width="1280" height="160" rx="22" ry="22" fill="#0b1220" stroke="#1f2a44" stroke-width="3"/>
    <rect x="40" y="-140" width="1200" height="140" rx="20" ry="20" fill="#0b1220" stroke="#1f2a44" stroke-width="3"/>
  </g>

  <!-- Hafez figure (stylized) -->
  <g transform="translate(320,420)">
    <!-- robe -->
    <path d="M120,300 C130,200 240,160 280,160 C320,160 430,200 440,300 L440,520 L120,520 Z" fill="#1f2937"/>
    <!-- head & turban -->
    <circle cx="300" cy="120" r="44" fill="#efefef"/>
    <path d="M256,88 C292,60 316,60 344,88 C352,104 336,116 300,116 C264,116 248,104 256,88 Z" fill="#374151"/>
    <!-- beard -->
    <path d="M260,124 C270,160 330,160 340,124 C328,140 272,140 260,124 Z" fill="#cbd5e1"/>
    <!-- hands -->
    <circle cx="220" cy="280" r="16" fill="#efefef"/>
    <circle cx="380" cy="280" r="16" fill="#efefef"/>

    <!-- 'Divan' device -->
    <g transform="translate(200,180)">
      <rect x="0" y="0" width="200" height="160" rx="14" fill="#111827" stroke="#22d3ee" stroke-width="3"/>
      <rect x="10" y="10" width="180" height="140" rx="10" fill="url(#g2)"/>
      <!-- display grid -->
      <g opacity="0.8" stroke="#22d3ee" stroke-width="2">
        <polyline points="20,120 60,80 100,100 140,60 170,90" fill="none"/>
        <rect x="22" y="36" width="28" height="18" fill="#0ea5e9" stroke="none"/>
        <rect x="56" y="52" width="28" height="18" fill="#22d3ee" stroke="none"/>
        <rect x="90" y="44" width="28" height="18" fill="#38bdf8" stroke="none"/>
        <rect x="124" y="30" width="28" height="18" fill="#67e8f9" stroke="none"/>
      </g>
      <!-- glow -->
      <circle cx="100" cy="80" r="110" fill="url(#glow)"/>
    </g>
  </g>

  <!-- subtle noise overlay -->
  <rect width="100%" height="100%" fill="url(#g2)"/>
</svg>